<svg xmlns="http://www.w3.org/2000/svg" viewBox="0 0 351 71.08"><defs><style>.cls-1{fill:#fff;}</style></defs><g id="SvgjsG1007"><path class="cls-1" d="M46.35,0A35.65,35.65,0,0,1,67.24,6.7c8.59-3.35,14.61-4.38,18.22-3.61,4,.86,5.84,3.36,5.5,7.05-.17,2.41-1.55,5.42-4,8.68-6.7,8.77-22.61,21.23-45.12,32.41a95.87,95.87,0,0,0,40.13-14.7A35.55,35.55,0,0,1,46.35,71.08a35.13,35.13,0,0,1-24.58-10C14.21,64,8.88,64.72,5.61,64,1.57,63.17-.23,60.68,0,57c.18-2.49,1.64-5.41,4.13-8.76C10.85,39.54,26.67,27,49.27,15.81A96,96,0,0,0,11.46,29.14,35.51,35.51,0,0,1,46.35,0ZM17,55.44a38.5,38.5,0,0,1-3.7-7c-1.37,1.46-2.58,2.83-3.52,4-1.46,2-2.41,3.52-2.58,4.64C9,57.5,12.23,57,17,55.44ZM73.08,12a39.48,39.48,0,0,1,4.56,6.62,50.8,50.8,0,0,0,3.69-4.12c1.46-2,2.41-3.53,2.58-4.56C81.93,9.54,78.41,10.14,73.08,12Z" transform="translate(0)"/></g><g id="SvgjsG1008"><path class="cls-1" d="M117.16,61.13l8.71-.45v5l-14,.15.36-20L111,16l14.29,0-.39,4.87-10.1-.26,2.9.79L116,37l7.34.46.23,5.48-5.5.19-.35-2.79Zm23.92-1,5.06.34v5.37H130.23V16.12h1V38.49L132,16.12h4.14L135.8,59l-2.27.65Zm14.12,1,8.71-.45v5L150,65.82l.36-20L149,16l14.28,0-.38,4.87-10.11-.26,2.91.79L154.06,37l7.34.46.23,5.48-5.5.19-.35-2.79Zm31.34-45.45L184,31.78h-3.1l3,.76-5.18,33.28-3-.23-8.92-49.91h5.7l3.71,29.41.83,8-.27-5.34,4.52-32Zm9.06,45.45,8.71-.45v5l-13.95.15.36-20L189.44,16l14.28,0-.38,4.87-10.11-.26,2.9.79L194.46,37l7.34.46.22,5.48-5.49.19-.36-2.79Zm27.55-45,4.74-.49-1.46,50.18h-4.26L214.4,27.63l0,37.85-5.11.3-.6-46.72c2.58-.46,6.43-1.2,6.43-1.2l-6.43.3V16.58l7.4-.35c1.73,8.94,6.56,28.44,6.56,28.44ZM258.67,57s4.62.88,4.44,1.19-1.73,5.66-1.73,5.66l-6.1,2L249,63.73l-4.1-4.63-1.3-6.85-.67-14,1.89-12.35,3.33-7.19S253.59,16,254.06,16s7.05,2.89,7.05,2.89l-.3,7-3.5-.15.62-3.16-5.11-1.53L249.47,30c-.42-3-.91-6.26-.91-6.26l-.75,10.92-.21,13.46,2.94,10.35-3-.07,4.61,1.08,3.06,1.87,2.62-1.41Zm18.19,3.14,5.06.34v5.37H266V16.12h1V38.49l.78-22.37h4.14L271.57,59l-2.26.65Zm24.78-38,1,16-.6,15.84L298,64.66l-8.85,1.16-5.75-10.7,0-26.15c-.18-.68,2.47-10.54,2.47-10.54L293.54,15l3.5.9-6.69,4.33-4,8.91.13,18.9s2.76,11.07,3,11.07a41.22,41.22,0,0,1,3.62,3l3.39-2.66,2.72-9.3,1.18-12.5-2.06-10.11-4.73.91-2.93,10.17,1,4.85,3.49-.86-1.64-6.11,2.29-.51s.94,7.45.94,7.71-2.34,11.64-2.34,11.64l-2,2-1.68-9.93-1.4-8.76,2-13.33,6.56-6.83Zm25-6.24.26,18.09-.47,15.63-1.4,8.39-4.9,7.89H315l-4.1-2.89S307.27,52.3,307.3,51.8s-1-11.7-1-11.7l0-12.79,0-11.51h4.87v8.3l.43,23.21,2.48,8.88,1.2,5-.52-4.07,2.74,2.7L320,58.36l1.8-5.48V30.75l3.51-.82h-3.51V15.81ZM350.9,34.56s.36,10.89-.28,11.39-2.09,9.11-2.51,9.61-4.53,6.8-5,7.31-11.72,2.95-11.72,2.95c-.07-.22-.11-2.17-.13-5.16,3.08-.57,8.54-1.55,8.54-1.55s4.78-8.41,4.79-8.87,3.1-13.62,2.55-14-2.53-10.08-2.8-10.43-6.41-4.41-6.83-4.19-4.38,3.12-4.38,3.12l2.22,29,5.43-4.94s2.6-12,2.19-11.92-3.88-.09-3.88-.09l-.82,9.65L336,26.9l4.29.68,3.71,7L342.72,48.7l-4.66,7.95s-3.89-1-6.77-1.6c0-14.75.3-39.42.3-39.42l7.9.19,8.56,7.11Z" transform="translate(0)"/></g></svg>